<svg width="21" height="37" viewBox="0 0 21 37" fill="none" xmlns="http://www.w3.org/2000/svg">
<path d="M3.49999 15.9099C4.88071 15.9099 6 17.0292 6 18.4099C6 19.7906 4.88072 20.9099 3.50001 20.9099L3.5 18.4099L3.49999 15.9099ZM0.732237 20.1777C-0.244076 19.2014 -0.244079 17.6185 0.732229 16.6422L16.6421 0.732237C17.6184 -0.244076 19.2013 -0.24408 20.1776 0.732229C21.1539 1.70854 21.1539 3.29145 20.1776 4.26776L6.03553 18.4099L20.1777 32.552C21.154 33.5283 21.154 35.1113 20.1777 36.0876C19.2014 37.0639 17.6185 37.0639 16.6422 36.0876L0.732237 20.1777ZM3.5 18.4099L3.50001 20.9099L2.50001 20.9099L2.5 18.4099L2.49999 15.9099L3.49999 15.9099L3.5 18.4099Z" fill="#767676" fill-opacity="0.5"/>
</svg>
