<svg width="21" height="37" viewBox="0 0 21 37" fill="none" xmlns="http://www.w3.org/2000/svg">
<path d="M17.4099 15.9099C16.0292 15.9099 14.9099 17.0292 14.9099 18.4099C14.9099 19.7906 16.0292 20.9099 17.4099 20.9099L17.4099 18.4099L17.4099 15.9099ZM20.1777 20.1777C21.154 19.2014 21.154 17.6185 20.1777 16.6422L4.26782 0.732237C3.29151 -0.244076 1.70859 -0.24408 0.732281 0.732229C-0.244032 1.70854 -0.244035 3.29145 0.732273 4.26776L14.8744 18.4099L0.732212 32.552C-0.244101 33.5283 -0.244105 35.1113 0.732204 36.0876C1.70851 37.0639 3.29142 37.0639 4.26774 36.0876L20.1777 20.1777ZM17.4099 18.4099L17.4099 20.9099L18.4099 20.9099L18.4099 18.4099L18.4099 15.9099L17.4099 15.9099L17.4099 18.4099Z" fill="#767676" fill-opacity="0.5"/>
</svg>
