<svg xmlns="http://www.w3.org/2000/svg" xmlns:xlink="http://www.w3.org/1999/xlink" width="60" height="60" viewBox="0 0 60 60">
  <defs>
    <clipPath id="clip-Custom_Size_2">
      <rect width="60" height="60"/>
    </clipPath>
  </defs>
  <g id="Custom_Size_2" data-name="Custom Size – 2" clip-path="url(#clip-Custom_Size_2)">
    <rect width="60" height="60" fill="#fff"/>
    <g id="Fitcann_Emblem_Gold" transform="translate(-3053.333)">
      <g id="Fitcann_Emblem_Gold-2" data-name="Fitcann_Emblem_Gold" transform="translate(3053.333)">
        <rect id="Rectangle_1" data-name="Rectangle 1" width="59.662" height="59.661" transform="translate(0)" fill="none"/>
        <g id="Emblem_Expand" transform="translate(0)">
          <path id="Path_1" data-name="Path 1" d="M1418.4,0a30,30,0,1,1-30,30A30.014,30.014,0,0,1,1418.4,0Zm-29.5,30.307A29.514,29.514,0,0,0,1418.268,59.5l-.005-1.5a28.014,28.014,0,0,1-27.856-27.7Zm59-.227-1.5.009A28.013,28.013,0,0,1,1418.762,58l.006,1.5A29.514,29.514,0,0,0,1447.9,30.08Zm-37.517,25.708A26.938,26.938,0,0,0,1418.259,57l-.006-1.495a25.46,25.46,0,0,1-7.409-1.14Zm16.234-.062-.468-1.42a25.443,25.443,0,0,1-7.4,1.2l.006,1.495A26.906,26.906,0,0,0,1426.62,55.725Zm-23.814-3.689a26.916,26.916,0,0,0,7.1,3.6l.457-1.423a25.441,25.441,0,0,1-6.686-3.387Zm31.365-.121-.884-1.205a25.432,25.432,0,0,1-6.66,3.438l.468,1.421A26.927,26.927,0,0,0,1434.171,51.915Zm-17.42-3.124-.62,6.112q1.048.094,2.119.1l-.024-6.142Q1417.483,48.855,1416.751,48.791Zm3.451-.011q-.73.069-1.476.081l.024,6.142q1.07-.014,2.117-.118Zm-5.409-.265-1.256,6.016q1.034.2,2.1.322l.619-6.113Q1415.515,48.656,1414.794,48.515Zm7.365-.024q-.72.145-1.459.235l.667,6.1q1.061-.125,2.094-.338Zm-9.282-.456L1411,53.887q1.008.313,2.052.542l1.256-6.016Q1413.58,48.251,1412.876,48.035Zm11.2-.037q-.7.221-1.426.388l1.3,6q1.04-.236,2.047-.557Zm-13.053-.643-2.482,5.625q.971.418,1.983.755l1.88-5.853Q1411.7,47.645,1411.021,47.355Zm14.906-.049q-.676.294-1.378.536l1.922,5.832q1.009-.344,1.977-.77Zm-16.68-.822-3.057,5.336q.922.518,1.892.959l2.482-5.626Q1409.891,46.843,1409.246,46.483Zm18.448-.061q-.642.364-1.313.678l2.521,5.6q.966-.448,1.885-.974Zm-30.94-.294a27.207,27.207,0,0,0,5.646,5.614l.875-1.212a25.7,25.7,0,0,1-5.314-5.284Zm43.423-.167-1.214-.873a25.662,25.662,0,0,1-5.274,5.324l.885,1.205A27.188,27.188,0,0,0,1440.178,45.961Zm-32.6-.53-3.6,4.987q.864.612,1.781,1.152l3.057-5.336Q1408.177,45.856,1407.574,45.431Zm21.787-.073q-.6.429-1.235.812l3.093,5.3q.912-.546,1.772-1.166Zm-23.341-1.148-4.1,4.584q.8.7,1.651,1.331l3.6-4.987Q1406.577,44.7,1406.021,44.21Zm24.887-.085q-.553.49-1.143.936l3.63,4.948q.849-.637,1.641-1.343Zm-26.3-1.291-4.561,4.13q.72.779,1.5,1.5l4.1-4.584Q1405.106,43.376,1404.6,42.835Zm13.813-31.175a18.352,18.352,0,1,1-18.352,18.352A18.36,18.36,0,0,1,1418.416,11.66Zm13.9,31.08q-.5.545-1.04,1.05l4.127,4.541q.778-.721,1.493-1.507ZM1418.4,13.089A16.911,16.911,0,1,1,1401.494,30,16.919,16.919,0,0,1,1418.4,13.089ZM1403.336,41.32l-4.97,3.631q.635.85,1.34,1.643l4.561-4.13Q1403.78,41.911,1403.336,41.32Zm30.239-.106q-.44.594-.925,1.152l4.581,4.084q.7-.8,1.327-1.654Zm-10.193,3.9-4.975-13.66-4.976,13.661a15.973,15.973,0,0,0,9.951,0Zm-30.562-6.474a26.943,26.943,0,0,0,3.64,7.083l1.208-.882a25.443,25.443,0,0,1-3.427-6.667Zm51.236-.2-1.425-.454a25.434,25.434,0,0,1-3.374,6.693l1.214.873A26.9,26.9,0,0,0,1444.055,38.444Zm-31.564,6.33,4.716-12.947-9.732,9.732A15.931,15.931,0,0,0,1412.491,44.774Zm16.874-3.244-9.792-9.791,4.748,13.034A15.945,15.945,0,0,0,1429.365,41.53Zm-27.131-1.849-5.325,3.093q.544.913,1.162,1.774l4.97-3.632Q1402.613,40.315,1402.234,39.681Zm32.433-.115q-.376.637-.8,1.243l4.983,3.582q.61-.865,1.148-1.783Zm-33.359-1.63-5.621,2.519q.445.966.97,1.887l5.325-3.093Q1401.62,38.607,1401.308,37.936Zm34.272-.123q-.307.674-.665,1.32l5.332,3.042q.516-.924.955-1.894Zm-28.81,3.037,10.312-10.312-14.577.084A15.853,15.853,0,0,0,1406.771,40.849Zm27.539-10.411-14.538.084,10.3,10.3A15.85,15.85,0,0,0,1434.309,30.438ZM1400.572,36.1l-5.856,1.918q.342,1.01.766,1.978l5.622-2.519Q1400.812,36.8,1400.572,36.1Zm35.732-.131q-.235.7-.522,1.383l5.621,2.468q.416-.972.751-1.984Zm-44.9-5.67a26.937,26.937,0,0,0,1.258,7.864l1.421-.465a25.436,25.436,0,0,1-1.183-7.4Zm54-.208-1.495.009a25.443,25.443,0,0,1-1.126,7.411l1.424.454A26.948,26.948,0,0,0,1445.4,30.094ZM1400.033,34.2l-6.026,1.295q.234,1.041.553,2.048l5.856-1.918Q1400.2,34.926,1400.033,34.2Zm36.8-.137q-.16.726-.374,1.43l5.85,1.866q.311-1.009.538-2.052ZM1399.7,32.256l-6.129.657q.123,1.061.335,2.095l6.026-1.295Q1399.785,32.995,1399.7,32.256Zm37.454-.142q-.082.74-.221,1.461l6.014,1.244q.2-1.035.318-2.1Zm-37.585-1.829-6.165.012q.013,1.07.114,2.118l6.13-.657Q1399.578,31.03,1399.567,30.286Zm43.843-.18-6.143.035q0,.745-.067,1.476l6.112.608Q1443.4,31.176,1443.409,30.106ZM1418.155.5a29.514,29.514,0,0,0-29.249,29.306l1.5,0A28.013,28.013,0,0,1,1418.155,2Zm-25.522,21.432a26.948,26.948,0,0,0-1.227,7.869l1.495,0a25.469,25.469,0,0,1,1.155-7.406Zm.874,5.747q-.1,1.047-.106,2.119l6.166-.012q.009-.743.074-1.473Zm49.778-.191-6.106.678q.07.731.085,1.475l6.143-.035Q1443.39,28.535,1443.284,27.488Zm-36.409-8.448a15.856,15.856,0,0,0-4.377,10.582l14.873-.086Zm37.239,2.695-1.419.471a25.432,25.432,0,0,1,1.212,7.4l1.495-.009A26.945,26.945,0,0,0,1444.114,21.735ZM1418.655.5V2A28.013,28.013,0,0,1,1446.4,29.588l1.5-.009A29.514,29.514,0,0,0,1418.655.5Zm11.309,18.57-10.453,10.453,14.795-.085A15.856,15.856,0,0,0,1429.964,19.071Zm-.71-.7a15.9,15.9,0,0,0-21.667-.029l10.848,10.848Zm-35.37,6.72q-.206,1.033-.327,2.1l6.135.634q.086-.738.228-1.457Zm49-.188-6,1.314q.148.719.24,1.458l6.107-.678Q1443.1,25.93,1442.887,24.9Zm-48.356-2.351q-.315,1.008-.545,2.05l6.036,1.272q.163-.723.38-1.425Zm47.688-.183-5.835,1.936q.223.7.392,1.424l6-1.314Q1442.543,23.369,1442.22,22.363Zm-24.51.026a1.664,1.664,0,0,1,2.356,1.435q0,.038,0,.076a1.663,1.663,0,1,1-3.309-.243h0q.005-.036.012-.072l0-.015a1.66,1.66,0,0,1,.091-.3v0a1.641,1.641,0,0,1,.163-.3,1.666,1.666,0,0,1,.291-.327l.035-.029.039-.031.041-.03.041-.029.016-.011.042-.027.027-.016.051-.029.027-.014.045-.023Zm-22.266-2.3q-.419.97-.759,1.981l5.871,1.9q.237-.7.527-1.377Zm45.845-.176-5.6,2.536q.3.674.54,1.375l5.836-1.936Q1441.716,20.88,1441.288,19.913Zm-44.679-2.171q-.52.922-.963,1.89l5.64,2.5q.31-.671.67-1.314Zm43.495-.167-5.306,3.109q.365.64.682,1.31l5.6-2.536Q1440.632,18.493,1440.1,17.575Zm-43.7-3.215a26.893,26.893,0,0,0-3.613,7.1l1.423.46a25.436,25.436,0,0,1,3.4-6.68Zm43.889-.169-1.2.887a25.443,25.443,0,0,1,3.452,6.653l1.419-.471A26.927,26.927,0,0,0,1440.289,14.191Zm-42.274,1.339q-.614.863-1.155,1.779l5.347,3.078q.378-.635.8-1.236Zm40.668-.156-4.952,3.648q.43.6.814,1.231l5.307-3.109Q1439.3,16.233,1438.682,15.374Zm-39.04-1.9q-.7.8-1.334,1.649l5,3.621q.441-.591.927-1.146Zm37.4-.144-4.544,4.147q.49.551.938,1.139l4.953-3.648Q1437.746,14.124,1437.039,13.334ZM1401.475,11.6q-.781.718-1.5,1.5l4.589,4.123q.5-.542,1.041-1.043Zm33.717-.13-4.086,4.6q.546.5,1.052,1.036l4.544-4.147Q1435.979,12.189,1435.192,11.475Zm-31.7-1.542q-.851.634-1.646,1.337l4.132,4.581q.554-.486,1.144-.93Zm29.671-.114-3.583,5.005q.595.438,1.153.921l4.087-4.6Q1434.019,10.446,1433.162,9.818Zm-30.844-1.5a27.184,27.184,0,0,0-5.625,5.636l1.211.877a25.668,25.668,0,0,1,5.294-5.3Zm32.006-.123-.871,1.215a25.678,25.678,0,0,1,5.335,5.264l1.2-.887A27.194,27.194,0,0,0,1434.324,8.2Zm-28.651.283q-.914.543-1.776,1.158l3.63,4.988q.6-.426,1.235-.806Zm25.3-.1-3.042,5.355q.638.374,1.243.8l3.584-5.005Q1431.889,8.918,1430.971,8.382Zm-22.977-1.12q-.968.444-1.889.966l3.089,5.341q.641-.361,1.313-.672Zm20.647-.08-2.465,5.646q.673.305,1.319.661l3.041-5.355Q1429.612,7.62,1428.641,7.183ZM1410.429,6.3q-1.009.34-1.979.762l2.513,5.635q.675-.291,1.376-.53Zm15.768-.061-1.862,5.875q.7.233,1.381.518l2.466-5.646Q1427.21,6.568,1426.2,6.235Zm-13.243-.643q-1.042.232-2.049.549l1.909,5.867q.7-.218,1.425-.382Zm10.713-.041-1.237,6.039q.725.157,1.429.37l1.861-5.875Q1424.711,5.775,1423.667,5.551Zm-8.128-.393q-1.061.121-2.1.33l1.284,6.034q.719-.143,1.457-.23Zm5.54-.021-.6,6.136q.739.081,1.459.217l1.237-6.039Q1422.142,5.251,1421.079,5.137ZM1418.155,5q-1.07.01-2.118.11l.645,6.133q.729-.067,1.473-.077Zm.5,0v6.165q.67.008,1.329.063l.6-6.136Q1419.627,5.006,1418.655,5Zm-8.842-.6a26.914,26.914,0,0,0-7.09,3.627l.88,1.209a25.418,25.418,0,0,1,6.673-3.413Zm16.987-.065-.452,1.426a25.428,25.428,0,0,1,6.7,3.362l.87-1.215A26.918,26.918,0,0,0,1426.8,4.333ZM1418.155,3a26.938,26.938,0,0,0-7.867,1.242l.463,1.422a25.452,25.452,0,0,1,7.4-1.169Zm.5,0V4.5a25.445,25.445,0,0,1,7.217,1.111l.452-1.426A26.942,26.942,0,0,0,1418.655,3Z" transform="translate(-1388.405)" fill="#003729" fill-rule="evenodd"/>
        </g>
      </g>
    </g>
  </g>
</svg>
