<svg xmlns="http://www.w3.org/2000/svg" xmlns:xlink="http://www.w3.org/1999/xlink" width="120" height="30" viewBox="0 0 120 30">
  <defs>
    <clipPath id="clip-Artboard_2">
      <rect width="120" height="30"/>
    </clipPath>
  </defs>
  <g id="Artboard_2" data-name="Artboard – 2" clip-path="url(#clip-Artboard_2)">
    <rect width="120" height="30" fill="#fff"/>
    <g id="Fitcann_R_Logotype_Emerald" transform="translate(-6179.26 -2444.363)">
      <g id="Fitcann_R_Logotype_Emerald-2" data-name="Fitcann_R_Logotype_Emerald" transform="translate(6166.26 2439.07)">
        <rect id="Rectangle_2" data-name="Rectangle 2" width="147" height="40" transform="translate(0 0.293)" fill="none"/>
        <g id="Group_1" data-name="Group 1" transform="translate(13.428 13.429)">
          <g id="Fitcann" transform="translate(0)">
            <path id="Path_2" data-name="Path 2" d="M355.154,986.723a5.409,5.409,0,0,1,2.548.583,4.891,4.891,0,0,1,1.794,1.577,4.709,4.709,0,0,1,.809,2.214h-2.322a3.586,3.586,0,0,0-.5-1.292,2.69,2.69,0,0,0-.962-.9,2.876,2.876,0,0,0-1.428-.334,2.812,2.812,0,0,0-2.878,2.051,8.308,8.308,0,0,0-.384,2.765,6.494,6.494,0,0,0,.849,3.75,2.8,2.8,0,0,0,2.413,1.175,2.679,2.679,0,0,0,1.428-.366,2.849,2.849,0,0,0,.962-.976,4,4,0,0,0,.5-1.333h2.322a6.425,6.425,0,0,1-.447,1.7,4.64,4.64,0,0,1-.953,1.45,4.294,4.294,0,0,1-1.541,1,6.017,6.017,0,0,1-2.21.366,5.589,5.589,0,0,1-3.086-.827,5.329,5.329,0,0,1-1.979-2.35,8.7,8.7,0,0,1-.691-3.619,8.441,8.441,0,0,1,.687-3.57,5.107,5.107,0,0,1,1.975-2.273A5.8,5.8,0,0,1,355.154,986.723Zm-46.54.181h8.549l-.009,1.862h-6.308v3.759h5.567v1.835h-5.567v5.612h-2.232Zm15.8,0h2.2v13.067h-2.2Zm8.9,1.979V986.9h10.194v1.979h-3.922v11.088h-2.205V988.883Zm60.511-1.979h2.2v13.067h-1.98l-6.57-9.588v9.588h-2.2V986.9h2.151l6.4,9.335Zm18.543,0h2.2v13.067h-1.979l-6.57-9.588v9.588h-2.2V986.9h2.151l6.4,9.335Zm-46.025,13.067,4.7-13.067h2.376l4.69,13.067h-2.2l-1.165-3.28h-4.989l-1.193,3.28Zm3.913-5.233h3.94l-1.961-5.693Z" transform="translate(-308.614 -986.723)" fill="#003729"/>
          </g>
        </g>
        <g id="Group_2" data-name="Group 2" transform="translate(126.149 13.428)">
          <path id="Path_3" data-name="Path 3" d="M10.758-149.073a3.226,3.226,0,0,1-1.683-.442,3.441,3.441,0,0,1-1.2-1.2,3.176,3.176,0,0,1-.442-1.669,3.262,3.262,0,0,1,.442-1.683,3.441,3.441,0,0,1,1.2-1.2,3.226,3.226,0,0,1,1.683-.442,3.175,3.175,0,0,1,1.669.442,3.441,3.441,0,0,1,1.2,1.2,3.262,3.262,0,0,1,.442,1.683,3.176,3.176,0,0,1-.442,1.669,3.441,3.441,0,0,1-1.2,1.2A3.176,3.176,0,0,1,10.758-149.073Zm0-.656a2.761,2.761,0,0,0,1.355-.328,2.32,2.32,0,0,0,.927-.927,2.892,2.892,0,0,0,.328-1.4,2.949,2.949,0,0,0-.328-1.412,2.513,2.513,0,0,0-.927-.927,2.761,2.761,0,0,0-1.355-.328,2.778,2.778,0,0,0-1.369.328,2.412,2.412,0,0,0-.927.927,2.947,2.947,0,0,0-.314,1.412,2.889,2.889,0,0,0,.314,1.4,2.234,2.234,0,0,0,.927.927A2.778,2.778,0,0,0,10.758-149.729Zm-1.269-1v-3.28h1.483a1.44,1.44,0,0,1,.841.214.7.7,0,0,1,.3.613.754.754,0,0,1-.214.585,1.2,1.2,0,0,1-.471.3l.628,1.569H11.4l-.556-1.5H10.1v1.5Zm.613-2h.8a.868.868,0,0,0,.4-.086.314.314,0,0,0,.171-.314.38.38,0,0,0-.128-.285.706.706,0,0,0-.485-.128H10.1Z" transform="translate(-7.435 155.705)" fill="#00392b"/>
        </g>
      </g>
    </g>
  </g>
</svg>
