<svg width="74" height="2" viewBox="0 0 74 2" fill="none" xmlns="http://www.w3.org/2000/svg">
<path d="M10 1C10 0.447715 10.4477 0 11 0H63C63.5523 0 64 0.447715 64 1C64 1.55228 63.5523 2 63 2H11C10.4477 2 10 1.55228 10 1Z" fill="#003729"/>
<path d="M66 1C66 0.447715 66.4477 0 67 0H69C69.5523 0 70 0.447715 70 1C70 1.55228 69.5523 2 69 2H67C66.4477 2 66 1.55228 66 1Z" fill="#003729"/>
<circle cx="73" cy="1" r="1" fill="#003729"/>
<path d="M4 1C4 0.447715 4.44772 0 5 0H7C7.55228 0 8 0.447715 8 1C8 1.55228 7.55228 2 7 2H5C4.44772 2 4 1.55228 4 1Z" fill="#003729"/>
<circle cx="1" cy="1" r="1" fill="#003729"/>
</svg>
