<svg width="37" height="2" viewBox="0 0 37 2" fill="none" xmlns="http://www.w3.org/2000/svg">
<path d="M11 1C11 0.447715 11.4477 0 12 0H25C25.5523 0 26 0.447715 26 1C26 1.55228 25.5523 2 25 2H12C11.4477 2 11 1.55228 11 1Z" fill="#003729"/>
<path d="M4 1C4 0.447715 4.44772 0 5 0H8C8.55228 0 9 0.447715 9 1C9 1.55228 8.55228 2 8 2H5C4.44772 2 4 1.55228 4 1Z" fill="#003729"/>
<path d="M28 1C28 0.447715 28.4477 0 29 0H32C32.5523 0 33 0.447715 33 1C33 1.55228 32.5523 2 32 2H29C28.4477 2 28 1.55228 28 1Z" fill="#003729"/>
<circle cx="1" cy="1" r="1" fill="#003729"/>
<circle cx="36" cy="1" r="1" fill="#003729"/>
</svg>
